<?xml version="1.0" encoding="utf-8"?>
<svg width="800px" height="800px" viewBox="0 -3.06 81.014 81.014" xmlns="http://www.w3.org/2000/svg">
  <g id="Group_8" data-name="Group 8" transform="translate(-297.623 -407.595)">
    <circle id="Ellipse_16" data-name="Ellipse 16" cx="12.154" cy="12.154" r="12.154" transform="translate(309.145 419.117)" fill="#814dff"/>
    <path id="Path_23" data-name="Path 23" d="M350.939,480.984a26.2,26.2,0,1,0-25.126-33.607,16.517,16.517,0,0,0-3.41-.348,16.978,16.978,0,1,0,0,33.955Z" fill="none" stroke="#000000" stroke-linecap="round" stroke-miterlimit="10" stroke-width="3" opacity="0.15"/>
    <path id="Path_24" data-name="Path 24" d="M350.939,471.324a26.2,26.2,0,1,0-25.126-33.607,16.517,16.517,0,0,0-3.41-.348,16.978,16.978,0,1,0,0,33.955Z" fill="none" stroke="#000000" stroke-linecap="round" stroke-miterlimit="10" stroke-width="3"/>
    <line id="Line_6" data-name="Line 6" y1="6.163" transform="translate(321.299 407.595)" fill="none" stroke="#814dff" stroke-miterlimit="10" stroke-width="3"/>
    <line id="Line_7" data-name="Line 7" x1="6.163" transform="translate(297.623 431.271)" fill="none" stroke="#814dff" stroke-miterlimit="10" stroke-width="3"/>
  </g>
</svg>